<?xml version="1.0" encoding="utf-8"?>
<!-- Generator: Adobe Illustrator 24.0.2, SVG Export Plug-In . SVG Version: 6.00 Build 0)  -->
<svg version="1.1" id="Layer_1" xmlns="http://www.w3.org/2000/svg" xmlns:xlink="http://www.w3.org/1999/xlink" x="0px" y="0px"
	 viewBox="0 0 1000 1000" style="enable-background:new 0 0 1000 1000;" xml:space="preserve">
<style type="text/css">
	.st0{fill:#DD5626;}
	.st1{fill:#0C0C0C;}
	.st2{fill:#EDFFC7;}
	.st3{fill:#332D3D;}
	.st4{display:none;fill:#332D3D;}
	.st5{fill:#413756;}
	.st6{fill:#FFFFFF;}
	.st7{fill:#111111;}
	.st8{opacity:0.6;fill:#FFFFFF;}
	.st9{opacity:0.24;}
</style>
<path class="st0" d="M569.17,550.18c0,0-0.73,16.69,0,17.18s11.69-0.92,12.15-2.05c0.83-2.04-8.74,0-8.74,0s4.62-4.02,5.1-5.24
	c0.49-1.21-6.32,3.16-6.32,3.16s1.7-4.62,1.21-5.83c-0.49-1.21-2.24,4.44-2.24,4.44l1.11-11.16"/>
<g>
	<path class="st1" d="M580.78,564.72c0,0,1.11-0.69,1.73-0.16l0.22,0.27c0,0-1.51,0.03-1.87,0.36
		C580.85,565.19,580.34,565.05,580.78,564.72z"/>
	<path class="st1" d="M577.05,560c0,0,0.78-0.76,1.38-0.44l0.22,0.18c0,0-1.22,0.3-1.45,0.63C577.2,560.36,576.76,560.34,577.05,560
		z"/>
	<path class="st1" d="M572.12,557.55c0,0,0.13-1.07,0.8-1.21l0.29,0c0,0-0.76,1-0.74,1.4C572.46,557.75,572.1,558.01,572.12,557.55z
		"/>
</g>
<path class="st0" d="M578.12,549.21c0,0-1.08,24.74,0,25.46c1.08,0.72,17.04-1.38,18-3.04c1.64-2.83-12.96,0-12.96,0
	s6.84-5.96,7.56-7.76c0.72-1.8-9.36,4.68-9.36,4.68s2.52-6.84,1.8-8.64c-0.72-1.8-3.32,6.57-3.32,6.57l1.64-16.53"/>
<g>
	<path class="st1" d="M594.9,570.89c0,0,1.6-0.99,2.5-0.22l0.32,0.38c0,0-2.18,0.04-2.7,0.52
		C595.01,571.56,594.27,571.36,594.9,570.89z"/>
	<path class="st1" d="M589.54,564.08c0,0,1.12-1.09,1.98-0.63l0.32,0.25c0,0-1.76,0.43-2.1,0.9
		C589.75,564.61,589.11,564.58,589.54,564.08z"/>
	<path class="st1" d="M582.43,560.56c0,0,0.18-1.55,1.15-1.74l0.41-0.01c0,0-1.1,1.44-1.06,2.02
		C582.92,560.84,582.41,561.22,582.43,560.56z"/>
</g>
<g>
	<path class="st2" d="M147.2,507.47l-18.59,17.24v24.51h-16.22v-125.4h16.22v80.45l48.84-44.62h19.6l-37.69,37.01l41.41,52.56
		h-19.94L147.2,507.47z"/>
	<path class="st2" d="M285.78,495.13v54.08H270.4v-11.83c-5.41,8.11-15.38,12.84-29.41,12.84c-20.28,0-33.13-10.82-33.13-26.37
		c0-14.37,9.3-26.2,36-26.2h25.69v-3.21c0-13.69-7.94-21.63-24-21.63c-10.65,0-21.46,3.72-28.39,9.63l-6.76-12.17
		c9.3-7.44,22.65-11.49,37.01-11.49C271.92,458.79,285.78,470.62,285.78,495.13z M269.56,521.83v-12.51h-25.01
		c-16.06,0-20.62,6.25-20.62,13.86c0,8.96,7.44,14.54,19.77,14.54C255.87,537.72,265.5,532.14,269.56,521.83z"/>
	<path class="st2" d="M408.64,504.42c0,27.38-19.1,45.8-45.29,45.8c-13.18,0-24.68-5.07-31.94-15.21v14.2h-15.55v-125.4h16.22v49.35
		c7.44-9.63,18.59-14.37,31.27-14.37C389.55,458.79,408.64,477.05,408.64,504.42z M392.25,504.42c0-19.1-13.01-31.44-30.25-31.44
		c-17.07,0-30.08,12.34-30.08,31.44s13.01,31.6,30.08,31.6C379.24,536.03,392.25,523.52,392.25,504.42z"/>
	<path class="st2" d="M422.83,504.42c0-26.7,19.77-45.63,46.65-45.63s46.48,18.93,46.48,45.63s-19.6,45.8-46.48,45.8
		S422.83,531.13,422.83,504.42z M499.56,504.42c0-19.1-12.84-31.44-30.08-31.44c-17.24,0-30.25,12.34-30.25,31.44
		s13.01,31.6,30.25,31.6C486.72,536.03,499.56,523.52,499.56,504.42z"/>
	<path class="st3" d="M576.8,458.79c-17.73,0.05-32.23,10.45-40.1,25.19c-0.83,1.55-1.58,3.15-2.26,4.79
		c-0.11,0.26-0.19,0.52-0.27,0.79c-1.29,4.81-2.7,11.21-3.88,19.44c-0.38,26.7,19.64,41.23,46.51,41.23s46.48-19.1,46.48-45.8
		C623.28,477.72,603.67,458.73,576.8,458.79z M576.8,536.03c-17.24,0-30.25-12.51-30.25-31.6c0-19.1,13.01-31.44,30.25-31.44
		s30.08,12.34,30.08,31.44C606.88,523.52,594.04,536.03,576.8,536.03z"/>
	<path class="st4" d="M534.28,489.16c-1.32,4.85-2.77,11.38-3.99,19.84C530.39,502.06,531.79,495.33,534.28,489.16z"/>
	<path class="st2" d="M696.11,543.97c-4.9,4.23-12.34,6.25-19.6,6.25c-18.08,0-28.39-9.97-28.39-28.05v-49.18H632.9v-13.35h15.21
		v-19.6h16.22v19.6h25.69v13.35h-25.69v48.51c0,9.63,5.07,15.04,14.03,15.04c4.73,0,9.29-1.52,12.67-4.22L696.11,543.97z"/>
	<path class="st2" d="M763.87,458.79v15.72c-1.35-0.17-2.53-0.17-3.72-0.17c-17.41,0-28.22,10.65-28.22,30.25v44.62h-16.22v-89.57
		h15.55v15.04C737,464.2,748.16,458.79,763.87,458.79z"/>
	<path class="st2" d="M831.98,458.79v15.72c-1.35-0.17-2.53-0.17-3.72-0.17c-17.41,0-28.22,10.65-28.22,30.25v44.62h-16.22v-89.57
		h15.55v15.04C805.11,464.2,816.26,458.79,831.98,458.79z"/>
	<path class="st2" d="M849.38,539.41c0-6.08,4.73-10.82,11.15-10.82c6.25,0,10.82,4.73,10.82,10.82c0,5.92-4.56,10.82-10.82,10.82
		C854.12,550.23,849.38,545.32,849.38,539.41z M850.91,430.91H870l-3.21,80.95h-12.84L850.91,430.91z"/>
</g>
<path class="st3" d="M607.91,436.7c5.8,14.83,18.01,53.54,15.37,67.11c-1.87,9.61-22.12-40.98-32.68-37.62
	c-10.48,3.33-42.97,12.78-50.77,12.66c0,0,24.44-23.17,34.76-46.67c0.01-0.02,0.01-0.03,0.01-0.03c2.95-6.72,4.75-13.48,4.48-19.72
	c-0.8-18.71,8.64-27.36,22.08-23.52c13.44,3.84,12.36,10.83,15.72,13.23s5.46,3.69,10.26,4.65c0,0-8-0.84-10.74,2.52
	c-0.27,0.34-14.52,14.52-10.44,22.8c0.5,1.01,1.16,2.58,1.95,4.58V436.7z"/>
<path class="st3" d="M530.45,508.49c0,0-18.25,60.31-34.23,77.17c-1.35,1.43-2.4,3.11-3.19,4.92c-2.14,4.92-4.65,12.97,4.04,8.96
	c2.02-0.93,3.78-2.36,5.15-4.11c5.62-7.16,19.61-26.08,22.01-28.08c0,0-19.16,35.85-31.47,46.36c-1.64,1.4-2.87,3.23-3.51,5.29
	l-2.38,7.62c-0.67,2.13,1.45,4.12,3.51,3.26c1.04-0.43,2.22-1.05,3.5-1.93c1.78-1.22,3.2-2.89,4.21-4.8
	c5.82-11.01,32.63-56.87,83.26-73.94C581.36,549.21,539.78,556.25,530.45,508.49z"/>
<path class="st4" d="M538.27,477.86l-1.57,6.12L530.29,509c1.22-8.46,2.67-14.99,3.99-19.84
	C536.33,481.65,538.09,478.19,538.27,477.86z"/>
<path class="st5" d="M627.14,406.79c0.58-0.13-4.21,0.41-9.65,2.11c-0.41,0.13-15.61,14.93-11.53,23.21
	c0.5,1.01,1.16,2.58,1.95,4.58v0.01c0.26,3.68-3.1,2.79-3.1,2.79c-1.4,3.24-4.73,1.08-4.73,1.08c-2.16,3.6-5.94,0.51-5.94,0.51
	c-3.06,2.84-5.58-0.87-5.58-0.87c-3.96,2.52-5.35-1.26-5.35-1.26c-3.9,1.26-4.37-2.7-4.37-2.7c-5.35,1.73-4.34-3.63-4.25-4.07
	c0.01-0.02,0.01-0.03,0.01-0.03c2.95-6.72,4.75-13.48,4.48-19.72c-0.8-18.71,8.64-27.36,22.08-23.52
	c13.44,3.84,12.93,11.21,16.29,13.61S621.95,404.12,627.14,406.79z"/>
<circle class="st6" cx="604.8" cy="400.53" r="3.11"/>
<circle class="st7" cx="604.8" cy="400.53" r="2.33"/>
<path class="st8" d="M604.13,398.78c0,0,1.75-0.65,2.16,0.9c0,0-0.2-0.24-1.23-0.47C604.02,398.99,602.94,399.59,604.13,398.78z"/>
<g class="st9">
	<path class="st6" d="M574.45,439.13c0.98,1.04,2.09,1.93,3.28,2.68l0.89,0.56c0.3,0.18,0.62,0.33,0.93,0.5
		c0.61,0.35,1.27,0.6,1.91,0.87c2.6,1.04,5.37,1.59,8.16,1.76l2.1,0.08l2.1-0.12l1.05-0.05l1.05-0.15c0.7-0.11,1.4-0.2,2.1-0.29
		c1.39-0.25,2.76-0.6,4.15-0.9c1.36-0.39,2.72-0.81,4.11-1.18c-1.3,0.58-2.64,1.09-3.97,1.65c-1.37,0.4-2.75,0.84-4.14,1.18
		c-0.71,0.14-1.41,0.28-2.12,0.4l-1.07,0.19l-1.08,0.09l-2.16,0.15l-2.17-0.06c-2.89-0.2-5.78-0.81-8.41-2.06
		C578.55,443.21,576.12,441.47,574.45,439.13z"/>
</g>
<g class="st9">
	<path class="st6" d="M577.85,445.7c1.33,1.17,2.92,1.97,4.56,2.58c1.65,0.59,3.37,0.96,5.11,1.12c1.74,0.23,3.5,0.15,5.25,0.06
		c0.88-0.06,1.75-0.19,2.63-0.28l2.62-0.42c-0.85,0.24-1.71,0.44-2.57,0.67c-0.88,0.14-1.75,0.31-2.63,0.42
		c-0.89,0.07-1.77,0.19-2.67,0.16l-1.34,0l-1.34-0.1c-1.77-0.21-3.54-0.58-5.19-1.26C580.63,447.94,579.04,447.02,577.85,445.7z"/>
</g>
</svg>
